<?xml version="1.0" encoding="UTF-8" standalone="no"?>
<svg
   xmlns:dc="http://purl.org/dc/elements/1.1/"
   xmlns:cc="http://creativecommons.org/ns#"
   xmlns:rdf="http://www.w3.org/1999/02/22-rdf-syntax-ns#"
   xmlns:svg="http://www.w3.org/2000/svg"
   xmlns="http://www.w3.org/2000/svg"
   viewBox="0 0 542.75867 337.57599"
   height="337.57599"
   width="542.75867"
   xml:space="preserve"
   id="svg2"
   version="1.1"><metadata
     id="metadata8"><rdf:RDF><cc:Work
         rdf:about=""><dc:format>image/svg+xml</dc:format><dc:type
           rdf:resource="http://purl.org/dc/dcmitype/StillImage" /></cc:Work></rdf:RDF></metadata><defs
     id="defs6"><clipPath
       id="clipPath30"
       clipPathUnits="userSpaceOnUse"><path
         id="path28"
         d="M 0,253.182 H 407.069 V 0 H 0 Z" /></clipPath></defs><g
     transform="matrix(1.3333333,0,0,-1.3333333,0,337.576)"
     id="g10"><g
       transform="translate(131.6362,148.2915)"
       id="g12"><path
         id="path14"
         style="fill:#231f20;fill-opacity:1;fill-rule:nonzero;stroke:none"
         d="m 0,0 h -39.036 v 62.716 h -23.75 V -21.679 H 6.063 l -0.044,0.168 z" /></g><g
       transform="translate(122.6792,211.0063)"
       id="g16"><path
         id="path18"
         style="fill:#231f20;fill-opacity:1;fill-rule:nonzero;stroke:none"
         d="m 0,0 h 24.437 l 13.979,-60.597 h 0.231 L 58.929,0 h 22.795 l 20.99,-60.597 h 0.228 L 116.927,0 h 24.438 L 117.748,-84.394 H 89.366 L 70.794,-30.093 H 70.563 L 51.284,-84.394 H 23.61 Z" /></g><g
       transform="translate(269.354,211.0063)"
       id="g20"><path
         id="path22"
         style="fill:#231f20;fill-opacity:1;fill-rule:nonzero;stroke:none"
         d="M 0,0 H 23.752 V -62.715 H 68.849 V -84.394 H 0 Z" /></g><g
       id="g24"><g
         clip-path="url(#clipPath30)"
         id="g26"><g
           transform="translate(68.8462,42.1914)"
           id="g32"><path
             id="path34"
             style="fill:#231f20;fill-opacity:1;fill-rule:nonzero;stroke:none"
             d="m 0,0 h 2.185 v 10.418 h 7.947 v 1.9 H 2.185 v 7.883 h 8.327 v 1.901 H 0 Z M 27.039,16.148 H 25.045 V 7.221 c 0,-2.692 -1.141,-5.891 -4.781,-5.891 -2.755,0 -3.831,1.963 -3.831,5.004 v 9.814 H 14.438 V 5.826 c 0,-3.545 1.519,-6.205 5.509,-6.205 3.356,0 4.56,1.805 5.225,3.26 h 0.062 V 0 h 1.932 c -0.127,1.299 -0.127,2.566 -0.127,3.801 z m -4.78,2.692 h 2.375 v 2.66 h -2.375 z m -5.415,0 h 2.375 V 21.5 H 16.844 Z M 32.358,0 h 1.996 v 7.98 c 0,2.913 0.855,6.459 4.021,6.459 0.507,0 1.045,-0.064 1.457,-0.191 v 2.09 c -0.35,0.096 -0.92,0.191 -1.394,0.191 -2.059,0 -3.419,-1.677 -4.147,-3.484 h -0.064 v 3.103 h -1.996 c 0.127,-1.169 0.127,-1.835 0.127,-3.609 z M 79.441,22.102 H 77.352 L 71.811,2.471 H 71.748 L 66.175,22.102 H 63.547 L 57.879,2.471 H 57.815 L 52.369,22.102 H 50.121 L 56.453,0 h 2.629 l 5.699,19.631 h 0.064 L 70.449,0 h 2.596 z M 91.854,2.533 C 90.904,1.932 88.781,1.33 87.326,1.33 c -3.483,0 -5.32,2.756 -5.32,6.174 h 11.051 v 1.014 c 0,4.337 -1.869,8.011 -6.428,8.011 -4.084,0 -6.807,-3.513 -6.807,-8.455 0,-4.844 1.993,-8.453 7.344,-8.453 1.49,0 3.293,0.317 4.688,0.887 z m -9.848,6.682 c 0,2.66 1.805,5.603 4.75,5.603 2.975,0 4.115,-2.785 4.115,-5.603 z M 96.064,0.381 c 1.426,-0.57 2.977,-0.76 4.529,-0.76 2.438,0 5.636,1.172 5.636,4.59 0,5.289 -7.948,4.908 -7.948,7.916 0,2.059 1.424,2.691 3.483,2.691 1.107,0 2.533,-0.285 3.578,-0.759 l 0.189,1.742 c -1.425,0.537 -3.135,0.728 -3.99,0.728 -2.658,0 -5.256,-1.203 -5.256,-4.402 0,-4.686 7.758,-4.084 7.758,-7.916 0,-1.836 -1.678,-2.881 -3.577,-2.881 -1.552,0 -3.009,0.412 -4.212,1.014 z m 21.34,15.767 h -3.673 v 4.592 l -1.993,-0.697 v -3.895 h -3.168 v -1.709 h 3.168 V 5.004 c 0,-2.945 0.125,-5.383 3.672,-5.383 0.982,0 1.963,0.252 2.439,0.443 l -0.127,1.647 c -0.571,-0.223 -1.077,-0.381 -1.837,-0.381 -1.614,0 -2.154,1.203 -2.154,2.66 v 10.449 h 3.673 z M 123.293,0 h 1.996 v 14.439 h 3.641 v 1.709 h -3.641 v 1.393 c 0,1.934 -0.285,4.877 2.438,4.877 0.57,0 1.171,-0.127 1.583,-0.348 l 0.127,1.742 c -0.38,0.221 -1.236,0.315 -1.869,0.315 -4.148,0 -4.275,-3.418 -4.275,-6.807 v -1.172 h -3.26 v -1.709 h 3.26 z m 17.826,0 h 1.965 c -0.159,1.109 -0.159,2.09 -0.159,3.389 v 7.125 c 0,4.211 -1.679,6.015 -5.667,6.015 -1.426,0 -3.516,-0.508 -4.75,-1.109 v -1.932 c 1.488,0.951 3.07,1.33 4.75,1.33 2.691,0 3.672,-1.392 3.672,-4.148 V 9.848 h -0.379 c -4.18,0 -9.944,-0.252 -9.944,-5.666 0,-1.457 0.729,-4.561 5.321,-4.561 1.994,0 4.242,1.045 5.129,2.977 h 0.062 z m -0.189,7.156 c 0,-1.742 -0.096,-5.826 -4.782,-5.826 -1.836,0 -3.355,0.791 -3.355,2.914 0,3.545 4.115,3.895 7.567,3.895 h 0.57 z M 147.675,0 h 1.995 v 23.748 h -1.995 z m 18.174,2.533 C 164.898,1.932 162.776,1.33 161.32,1.33 c -3.482,0 -5.318,2.756 -5.318,6.174 h 11.05 v 1.014 c 0,4.337 -1.868,8.011 -6.429,8.011 -4.084,0 -6.807,-3.513 -6.807,-8.455 0,-4.844 1.996,-8.453 7.346,-8.453 1.488,0 3.293,0.317 4.687,0.887 z m -9.847,6.682 c 0,2.66 1.804,5.603 4.748,5.603 2.977,0 4.117,-2.785 4.117,-5.603 z M 171.168,0 h 1.994 v 8.93 c 0,2.691 1.141,5.888 4.781,5.888 2.756,0 3.831,-1.963 3.831,-5.002 V 0 h 1.996 v 10.322 c 0,3.547 -1.52,6.207 -5.509,6.207 -3.357,0 -4.56,-1.804 -5.226,-3.261 h -0.062 v 2.88 h -1.932 c 0.127,-1.296 0.127,-2.564 0.127,-3.798 z m 16.718,7.441 h 7.946 v 2.186 h -7.946 z M 199.98,0 h 11.051 v 1.9 h -8.865 v 20.202 h -2.186 z m 14.344,0 h 1.994 v 16.148 h -1.994 z m 1.994,23.115 h -1.994 v -2.66 h 1.994 z m 5.161,-29.763 h 1.995 v 9.404 h 0.063 c 0.982,-2.09 2.502,-3.135 5.035,-3.135 4.432,0 6.649,3.672 6.649,8.453 0,4.908 -1.901,8.455 -6.649,8.455 -3.421,0 -4.654,-2.439 -5.162,-3.326 h -0.062 l 0.126,2.945 h -1.995 z m 11.556,14.722 c 0,-3.135 -0.98,-6.744 -4.781,-6.744 -3.545,0 -4.78,3.799 -4.78,6.744 0,2.946 1.235,6.744 4.78,6.744 3.801,0 4.781,-3.609 4.781,-6.744 M 239.4,-6.648 h 1.996 v 9.404 h 0.063 c 0.98,-2.09 2.5,-3.135 5.033,-3.135 4.434,0 6.651,3.672 6.651,8.453 0,4.908 -1.901,8.455 -6.651,8.455 -3.418,0 -4.654,-2.439 -5.16,-3.326 h -0.063 l 0.127,2.945 H 239.4 Z m 11.557,14.722 c 0,-3.135 -0.981,-6.744 -4.78,-6.744 -3.548,0 -4.781,3.799 -4.781,6.744 0,2.946 1.233,6.744 4.781,6.744 3.799,0 4.78,-3.609 4.78,-6.744 m 17.384,-5.541 c -0.95,-0.601 -3.072,-1.203 -4.529,-1.203 -3.482,0 -5.318,2.756 -5.318,6.174 h 11.049 v 1.014 c 0,4.337 -1.867,8.011 -6.428,8.011 -4.084,0 -6.806,-3.513 -6.806,-8.455 0,-4.844 1.995,-8.453 7.345,-8.453 1.489,0 3.293,0.317 4.687,0.887 z m -9.847,6.682 c 0,2.66 1.803,5.603 4.748,5.603 2.977,0 4.116,-2.785 4.116,-5.603 z M 271.729,0 h 2.564 v 2.66 h -2.564 z" /></g><g
           transform="translate(68.8462,79.2188)"
           id="g36"><path
             id="path38"
             style="fill:#231f20;fill-opacity:1;fill-rule:nonzero;stroke:none"
             d="m 0,0 h 2.185 v 10.418 h 7.947 v 1.9 H 2.185 v 7.883 h 8.327 v 1.901 H 0 Z M 27.039,16.148 H 25.045 V 7.219 c 0,-2.69 -1.141,-5.889 -4.781,-5.889 -2.755,0 -3.831,1.963 -3.831,5.004 v 9.814 H 14.438 V 5.826 c 0,-3.545 1.519,-6.205 5.509,-6.205 3.356,0 4.56,1.805 5.225,3.26 h 0.062 V 0 h 1.932 c -0.127,1.299 -0.127,2.564 -0.127,3.801 z m -4.78,2.692 h 2.375 v 2.66 h -2.375 z m -5.415,0 h 2.375 V 21.5 H 16.844 Z M 32.358,0 h 1.996 v 7.979 c 0,2.914 0.855,6.459 4.021,6.459 0.507,0 1.045,-0.063 1.457,-0.19 v 2.09 c -0.35,0.096 -0.92,0.191 -1.394,0.191 -2.059,0 -3.419,-1.679 -4.147,-3.484 h -0.064 v 3.103 h -1.996 c 0.127,-1.171 0.127,-1.835 0.127,-3.609 z M 65.129,23.748 H 63.135 V 13.426 h -0.063 c -0.285,0.791 -1.869,3.103 -5.035,3.103 -4.75,0 -6.649,-3.547 -6.649,-8.455 0,-4.781 2.216,-8.453 6.649,-8.453 2.312,0 3.957,0.887 5.035,2.943 h 0.063 V 0 h 1.994 z M 53.572,8.074 c 0,3.135 0.983,6.744 4.782,6.744 3.545,0 4.781,-3.798 4.781,-6.744 0,-2.945 -1.236,-6.744 -4.781,-6.744 -3.799,0 -4.782,3.609 -4.782,6.744 M 70.259,0 h 1.995 v 16.148 h -1.995 z m 1.995,23.115 h -1.995 v -2.66 h 1.995 z M 88.434,2.533 C 87.483,1.932 85.361,1.33 83.906,1.33 c -3.484,0 -5.32,2.756 -5.32,6.174 h 11.051 v 1.014 c 0,4.337 -1.868,8.011 -6.428,8.011 -4.084,0 -6.808,-3.515 -6.808,-8.455 0,-4.844 1.995,-8.453 7.345,-8.453 1.489,0 3.293,0.317 4.688,0.887 z m -9.848,6.682 c 0,2.66 1.805,5.603 4.75,5.603 2.976,0 4.115,-2.785 4.115,-5.603 z M 103.094,0 h 2.183 v 19.916 h 0.065 L 113.637,0 h 1.867 l 8.043,19.916 h 0.063 V 0 h 2.185 V 22.102 H 122.66 L 114.556,2.66 106.48,22.102 h -3.386 z m 39.07,2.533 c -0.948,-0.601 -3.07,-1.203 -4.526,-1.203 -3.484,0 -5.321,2.756 -5.321,6.174 h 11.052 v 1.014 c 0,4.337 -1.869,8.011 -6.429,8.011 -4.084,0 -6.806,-3.515 -6.806,-8.455 0,-4.844 1.993,-8.453 7.345,-8.453 1.489,0 3.292,0.317 4.685,0.887 z m -9.847,6.682 c 0,2.66 1.806,5.603 4.75,5.603 2.976,0 4.117,-2.785 4.117,-5.603 z M 147.484,0 h 1.995 v 8.93 c 0,2.691 1.14,5.888 4.782,5.888 2.754,0 3.831,-1.963 3.831,-5.002 V 0 h 1.994 v 10.322 c 0,3.547 -1.52,6.207 -5.51,6.207 -3.355,0 -4.558,-1.806 -5.223,-3.261 h -0.064 v 2.88 h -1.932 c 0.127,-1.298 0.127,-2.564 0.127,-3.798 z m 16.496,0.381 c 1.426,-0.57 2.977,-0.76 4.529,-0.76 2.438,0 5.636,1.172 5.636,4.59 0,5.289 -7.948,4.908 -7.948,7.916 0,2.059 1.426,2.691 3.484,2.691 1.108,0 2.532,-0.285 3.578,-0.759 l 0.19,1.742 c -1.426,0.537 -3.136,0.728 -3.99,0.728 -2.66,0 -5.256,-1.203 -5.256,-4.402 0,-4.686 7.756,-4.084 7.756,-7.916 0,-1.836 -1.678,-2.881 -3.577,-2.881 -1.552,0 -3.009,0.412 -4.212,1.014 z m 24.729,15.514 c -0.569,0.191 -1.963,0.634 -3.895,0.634 -4.781,0 -7.978,-3.484 -7.978,-8.455 0,-4.496 2.533,-8.453 7.726,-8.453 1.52,0 2.786,0.094 4.147,0.568 l -0.189,1.87 c -1.204,-0.444 -2.375,-0.729 -3.641,-0.729 -3.643,0 -5.858,3.072 -5.858,6.744 0,3.926 2.184,6.744 6.079,6.744 1.077,0 2.375,-0.347 3.452,-0.822 z M 192.414,0 h 1.994 v 8.645 c 0,2.818 1.236,6.173 4.781,6.173 3.293,0 3.832,-2.406 3.832,-5.191 V 0 h 1.995 v 9.658 c 0,3.988 -1.172,6.871 -5.51,6.871 -2.374,0 -4.18,-1.33 -5.034,-3.103 h -0.064 v 10.322 h -1.994 z m 28.75,2.533 c -0.951,-0.601 -3.071,-1.203 -4.528,-1.203 -3.484,0 -5.32,2.756 -5.32,6.174 h 11.051 v 1.014 c 0,4.337 -1.869,8.011 -6.428,8.011 -4.085,0 -6.807,-3.515 -6.807,-8.455 0,-4.844 1.995,-8.453 7.346,-8.453 1.488,0 3.293,0.317 4.686,0.887 z m -9.848,6.682 c 0,2.66 1.805,5.603 4.749,5.603 2.978,0 4.117,-2.785 4.117,-5.603 z M 226.482,0 h 1.996 v 8.93 c 0,2.691 1.139,5.888 4.781,5.888 2.755,0 3.831,-1.963 3.831,-5.002 V 0 h 1.994 v 10.322 c 0,3.547 -1.52,6.207 -5.508,6.207 -3.356,0 -4.56,-1.806 -5.224,-3.261 h -0.065 v 2.88 h -1.931 c 0.126,-1.298 0.126,-2.564 0.126,-3.798 z m 15.991,0 h 2.564 v 2.66 h -2.564 z" /></g></g></g></g></svg>