<?xml version="1.0" encoding="UTF-8" standalone="no"?>
<svg
   xmlns:dc="http://purl.org/dc/elements/1.1/"
   xmlns:cc="http://creativecommons.org/ns#"
   xmlns:rdf="http://www.w3.org/1999/02/22-rdf-syntax-ns#"
   xmlns:svg="http://www.w3.org/2000/svg"
   xmlns="http://www.w3.org/2000/svg"
   viewBox="0 0 1206.5732 267.59732"
   height="267.59732"
   width="1206.5732"
   xml:space="preserve"
   id="svg2"
   version="1.1"><metadata
     id="metadata8"><rdf:RDF><cc:Work
         rdf:about=""><dc:format>image/svg+xml</dc:format><dc:type
           rdf:resource="http://purl.org/dc/dcmitype/StillImage" /></cc:Work></rdf:RDF></metadata><defs
     id="defs6"><clipPath
       id="clipPath22"
       clipPathUnits="userSpaceOnUse"><path
         id="path20"
         d="M 0,200.698 H 904.93 V 0 H 0 Z" /></clipPath></defs><g
     transform="matrix(1.3333333,0,0,-1.3333333,0,267.59733)"
     id="g10"><g
       transform="translate(69.6226,117.6918)"
       id="g12"><path
         id="path14"
         style="fill:#090807;fill-opacity:1;fill-rule:nonzero;stroke:none"
         d="m 0,0 h -17.321 v 29.084 h 6.551 V 5.313 l 10.77,0 z" /></g><g
       id="g16"><g
         clip-path="url(#clipPath22)"
         id="g18"><g
           transform="translate(111.5864,146.7763)"
           id="g24"><path
             id="path26"
             style="fill:#090807;fill-opacity:1;fill-rule:nonzero;stroke:none"
             d="m 0,0 -7.687,-29.084 h -7.261 l -4.827,18.659 c -0.257,0.974 -0.412,2.062 -0.467,3.265 h -0.081 c -0.121,-1.325 -0.297,-2.413 -0.527,-3.265 l -4.949,-18.659 h -7.565 L -41.01,0 h 7.159 l 4.097,-19.369 c 0.176,-0.825 0.304,-1.934 0.385,-3.327 h 0.122 c 0.054,1.041 0.25,2.177 0.588,3.408 L -23.385,0 h 7.017 l 4.766,-19.532 c 0.176,-0.717 0.332,-1.758 0.467,-3.123 h 0.081 c 0.054,1.068 0.196,2.15 0.426,3.245 L -6.612,0 Z" /></g><g
           transform="translate(132.5986,117.6918)"
           id="g28"><path
             id="path30"
             style="fill:#090807;fill-opacity:1;fill-rule:nonzero;stroke:none"
             d="m 0,0 h -17.321 v 29.084 h 6.551 V 5.313 l 10.77,0 z" /></g><path
           id="path32"
           style="fill:#090807;fill-opacity:1;fill-rule:nonzero;stroke:none"
           d="m 147.181,126.535 h -11.094 v 4.482 h 11.094 z" /><g
           transform="translate(186.4468,117.6918)"
           id="g34"><path
             id="path36"
             style="fill:#090807;fill-opacity:1;fill-rule:nonzero;stroke:none"
             d="m 0,0 h -6.47 v 17.402 c 0,1.879 0.081,3.955 0.243,6.226 H -6.389 C -6.727,21.844 -7.031,20.559 -7.302,19.775 L -14.116,0 h -5.355 l -6.936,19.572 c -0.19,0.528 -0.494,1.88 -0.913,4.056 h -0.182 c 0.175,-2.866 0.263,-5.381 0.263,-7.545 V 0 h -5.902 v 29.084 h 9.594 l 5.942,-17.239 c 0.473,-1.38 0.818,-2.765 1.034,-4.158 h 0.122 c 0.365,1.609 0.751,3.008 1.156,4.198 L -9.35,29.084 H 0 Z" /></g><g
           transform="translate(212.1646,117.6918)"
           id="g38"><path
             id="path40"
             style="fill:#090807;fill-opacity:1;fill-rule:nonzero;stroke:none"
             d="M 0,0 H -6.389 V 3.164 H -6.49 c -1.582,-2.447 -3.698,-3.671 -6.349,-3.671 -4.813,0 -7.22,2.913 -7.22,8.741 v 12.535 h 6.389 V 8.802 c 0,-2.934 1.163,-4.401 3.488,-4.401 1.149,0 2.069,0.403 2.759,1.207 0.689,0.804 1.034,1.896 1.034,3.276 V 20.769 H 0 Z" /></g><g
           transform="translate(216.2002,118.2397)"
           id="g42"><path
             id="path44"
             style="fill:#090807;fill-opacity:1;fill-rule:nonzero;stroke:none"
             d="M 0,0 V 5.192 C 1.055,4.557 2.106,4.083 3.154,3.772 4.202,3.461 5.192,3.306 6.125,3.306 c 1.136,0 2.032,0.155 2.688,0.466 0.655,0.311 0.983,0.785 0.983,1.42 0,0.406 -0.149,0.744 -0.446,1.014 C 9.053,6.477 8.671,6.713 8.204,6.916 7.738,7.119 7.228,7.301 6.673,7.463 6.119,7.626 5.584,7.809 5.071,8.011 4.246,8.322 3.519,8.657 2.891,9.015 2.262,9.373 1.734,9.789 1.309,10.263 0.882,10.736 0.558,11.283 0.335,11.905 0.112,12.527 0,13.264 0,14.116 c 0,1.163 0.254,2.163 0.761,3.002 0.507,0.838 1.183,1.524 2.028,2.058 0.845,0.534 1.812,0.927 2.9,1.177 1.089,0.25 2.221,0.375 3.397,0.375 0.92,0 1.853,-0.071 2.8,-0.213 0.946,-0.142 1.879,-0.348 2.799,-0.619 v -4.948 c -0.812,0.473 -1.681,0.828 -2.607,1.065 -0.926,0.236 -1.835,0.354 -2.728,0.354 -0.419,0 -0.814,-0.037 -1.186,-0.111 C 7.792,16.181 7.464,16.073 7.18,15.931 6.896,15.79 6.673,15.607 6.511,15.384 6.349,15.161 6.268,14.907 6.268,14.623 c 0,-0.378 0.121,-0.703 0.364,-0.974 0.244,-0.27 0.561,-0.503 0.954,-0.699 0.392,-0.196 0.828,-0.372 1.308,-0.528 0.48,-0.155 0.957,-0.314 1.43,-0.476 0.852,-0.298 1.622,-0.622 2.312,-0.974 0.69,-0.351 1.281,-0.764 1.775,-1.237 C 14.904,9.262 15.283,8.708 15.546,8.072 15.81,7.437 15.942,6.679 15.942,5.8 15.942,4.57 15.675,3.519 15.141,2.646 14.606,1.774 13.896,1.064 13.011,0.517 12.125,-0.03 11.104,-0.43 9.949,-0.68 8.792,-0.93 7.592,-1.055 6.349,-1.055 4.063,-1.055 1.947,-0.703 0,0" /></g><g
           transform="translate(248.5508,130.1855)"
           id="g46"><path
             id="path48"
             style="fill:#090807;fill-opacity:1;fill-rule:nonzero;stroke:none"
             d="M 0,0 C 0,2.975 -1.204,4.462 -3.61,4.462 -4.638,4.462 -5.527,4.036 -6.277,3.185 -7.028,2.333 -7.484,1.271 -7.646,0 Z M 5.942,-3.935 H -7.606 c 0.216,-3.015 2.116,-4.523 5.699,-4.523 2.285,0 4.293,0.541 6.024,1.624 v -4.625 C 2.197,-12.487 -0.298,-13 -3.367,-13 c -3.354,0 -5.956,0.929 -7.809,2.788 -1.852,1.859 -2.778,4.452 -2.778,7.778 0,3.448 1,6.179 3.001,8.194 2.001,2.015 4.463,3.022 7.383,3.022 3.029,0 5.371,-0.899 7.028,-2.697 1.656,-1.799 2.484,-4.239 2.484,-7.322 z" /></g><g
           transform="translate(278.0405,117.6918)"
           id="g50"><path
             id="path52"
             style="fill:#090807;fill-opacity:1;fill-rule:nonzero;stroke:none"
             d="M 0,0 H -6.389 V 3.164 H -6.49 c -1.582,-2.447 -3.698,-3.671 -6.349,-3.671 -4.813,0 -7.22,2.913 -7.22,8.741 v 12.535 h 6.389 V 8.802 c 0,-2.934 1.163,-4.401 3.488,-4.401 1.149,0 2.069,0.403 2.759,1.207 0.689,0.804 1.034,1.896 1.034,3.276 V 20.769 H 0 Z" /></g><g
           transform="translate(316.4146,117.6918)"
           id="g54"><path
             id="path56"
             style="fill:#090807;fill-opacity:1;fill-rule:nonzero;stroke:none"
             d="m 0,0 h -6.389 v 11.845 c 0,3.015 -1.109,4.523 -3.326,4.523 -1.055,0 -1.914,-0.453 -2.576,-1.359 -0.663,-0.906 -0.994,-2.035 -0.994,-3.387 V 0 h -6.409 v 11.966 c 0,2.934 -1.089,4.402 -3.265,4.402 -1.096,0 -1.971,-0.433 -2.627,-1.298 -0.656,-0.866 -0.984,-2.042 -0.984,-3.529 V 0 h -6.409 v 20.769 h 6.409 v -3.245 h 0.082 c 0.662,1.108 1.592,2.011 2.788,2.707 1.197,0.697 2.505,1.045 3.925,1.045 2.934,0 4.942,-1.292 6.024,-3.874 1.582,2.582 3.907,3.874 6.977,3.874 C -2.258,21.276 0,18.49 0,12.92 Z" /></g><g
           transform="translate(346.4927,143.5312)"
           id="g58"><path
             id="path60"
             style="fill:#090807;fill-opacity:1;fill-rule:nonzero;stroke:none"
             d="m 0,0 c -0.825,0.325 -1.616,0.487 -2.373,0.487 -2.056,0 -3.083,-1.116 -3.083,-3.347 v -2.21 h 4.746 v -4.726 h -4.746 v -16.043 h -6.389 v 16.043 h -3.488 v 4.726 h 3.488 v 2.575 c 0,2.367 0.771,4.273 2.312,5.72 1.542,1.446 3.637,2.17 6.288,2.17 1.298,0 2.379,-0.135 3.245,-0.406 z" /></g><g
           transform="translate(363.2861,141.7465)"
           id="g62"><path
             id="path64"
             style="fill:#090807;fill-opacity:1;fill-rule:nonzero;stroke:none"
             d="m 0,0 c -0.906,0 -1.65,0.264 -2.231,0.791 -0.582,0.527 -0.872,1.189 -0.872,1.987 0,0.825 0.29,1.494 0.872,2.009 C -1.65,5.3 -0.906,5.557 0,5.557 0.906,5.557 1.653,5.297 2.241,4.776 2.829,4.256 3.124,3.59 3.124,2.778 3.124,1.967 2.833,1.301 2.251,0.781 1.67,0.26 0.919,0 0,0 m -9.289,0 c -0.92,0 -1.67,0.267 -2.252,0.801 -0.581,0.534 -0.872,1.193 -0.872,1.977 0,0.812 0.298,1.478 0.892,1.998 0.596,0.521 1.339,0.781 2.232,0.781 0.919,0 1.666,-0.26 2.241,-0.781 0.574,-0.52 0.862,-1.186 0.862,-1.998 0,-0.824 -0.288,-1.494 -0.862,-2.007 C -7.623,0.256 -8.37,0 -9.289,0 M 5.314,-24.055 h -6.389 v 3.164 h -0.101 c -1.582,-2.447 -3.699,-3.671 -6.349,-3.671 -4.813,0 -7.22,2.914 -7.22,8.742 v 12.534 h 6.389 v -11.966 c 0,-2.935 1.163,-4.401 3.488,-4.401 1.149,0 2.069,0.402 2.759,1.207 0.689,0.803 1.034,1.896 1.034,3.275 v 11.885 h 6.389 z" /></g><g
           transform="translate(387.5435,132.6801)"
           id="g66"><path
             id="path68"
             style="fill:#090807;fill-opacity:1;fill-rule:nonzero;stroke:none"
             d="M 0,0 C -0.771,0.419 -1.67,0.629 -2.698,0.629 -4.09,0.629 -5.179,0.118 -5.963,-0.902 -6.748,-1.923 -7.14,-3.313 -7.14,-5.07 v -9.918 h -6.408 V 5.781 H -7.14 V 1.927 h 0.082 c 1.014,2.812 2.839,4.219 5.476,4.219 0.676,0 1.203,-0.082 1.582,-0.244 z" /></g><g
           transform="translate(417.481,129.1918)"
           id="g70"><path
             id="path72"
             style="fill:#231f20;fill-opacity:1;fill-rule:nonzero;stroke:none"
             d="m 0,0 -3.123,9.776 c -0.231,0.73 -0.393,1.602 -0.487,2.616 H -3.772 C -3.84,11.541 -4.009,10.695 -4.279,9.857 L -7.443,0 Z M 10.709,-11.5 H 3.57 L 1.501,-5.03 H -8.843 l -2.048,-6.47 h -7.099 l 10.587,29.084 h 7.768 z" /></g><g
           transform="translate(444.7402,132.6801)"
           id="g74"><path
             id="path76"
             style="fill:#231f20;fill-opacity:1;fill-rule:nonzero;stroke:none"
             d="M 0,0 C -0.771,0.419 -1.67,0.629 -2.698,0.629 -4.09,0.629 -5.179,0.118 -5.963,-0.902 -6.748,-1.923 -7.14,-3.313 -7.14,-5.07 v -9.918 h -6.408 V 5.781 H -7.14 V 1.927 h 0.082 c 1.014,2.812 2.839,4.219 5.476,4.219 0.676,0 1.203,-0.082 1.582,-0.244 z" /></g><g
           transform="translate(463.4609,118.4418)"
           id="g78"><path
             id="path80"
             style="fill:#231f20;fill-opacity:1;fill-rule:nonzero;stroke:none"
             d="m 0,0 c -1.447,-0.838 -3.536,-1.257 -6.267,-1.257 -3.191,0 -5.774,0.967 -7.748,2.901 -1.974,1.933 -2.961,4.427 -2.961,7.483 0,3.529 1.058,6.311 3.174,8.347 2.116,2.034 4.945,3.052 8.488,3.052 2.447,0 4.219,-0.325 5.314,-0.974 v -5.435 c -1.339,1 -2.833,1.501 -4.482,1.501 -1.839,0 -3.296,-0.538 -4.371,-1.613 -1.075,-1.075 -1.613,-2.559 -1.613,-4.452 0,-1.839 0.514,-3.282 1.542,-4.33 1.027,-1.048 2.44,-1.572 4.239,-1.572 1.595,0 3.157,0.5 4.685,1.501 z" /></g><g
           transform="translate(487.5962,117.6918)"
           id="g82"><path
             id="path84"
             style="fill:#231f20;fill-opacity:1;fill-rule:nonzero;stroke:none"
             d="m 0,0 h -6.389 v 11.804 c 0,3.043 -1.109,4.564 -3.326,4.564 -1.136,0 -2.056,-0.426 -2.759,-1.278 -0.703,-0.852 -1.054,-1.934 -1.054,-3.245 V 0 h -6.409 v 30.748 h 6.409 V 17.686 h 0.081 c 1.569,2.393 3.698,3.59 6.389,3.59 4.705,0 7.058,-2.839 7.058,-8.519 z" /></g><g
           transform="translate(505.9312,141.7465)"
           id="g86"><path
             id="path88"
             style="fill:#231f20;fill-opacity:1;fill-rule:nonzero;stroke:none"
             d="m 0,0 c -0.906,0 -1.65,0.264 -2.231,0.791 -0.582,0.527 -0.872,1.189 -0.872,1.987 0,0.825 0.29,1.494 0.872,2.009 C -1.65,5.3 -0.906,5.557 0,5.557 0.906,5.557 1.653,5.297 2.241,4.776 2.83,4.256 3.124,3.59 3.124,2.778 3.124,1.967 2.833,1.301 2.251,0.781 1.67,0.26 0.919,0 0,0 m -2.008,-15.617 v 1.399 l -3.772,-0.487 c -2.083,-0.27 -3.124,-1.21 -3.124,-2.819 0,-0.73 0.254,-1.329 0.761,-1.794 0.507,-0.467 1.193,-0.701 2.059,-0.701 1.203,0 2.183,0.416 2.94,1.248 0.757,0.832 1.136,1.882 1.136,3.154 M -9.289,0 c -0.92,0 -1.67,0.267 -2.252,0.801 -0.581,0.534 -0.872,1.193 -0.872,1.977 0,0.812 0.298,1.478 0.893,1.998 0.595,0.521 1.338,0.781 2.231,0.781 0.919,0 1.666,-0.26 2.241,-0.781 0.575,-0.52 0.862,-1.186 0.862,-1.998 0,-0.824 -0.287,-1.494 -0.862,-2.007 C -7.623,0.256 -8.37,0 -9.289,0 M 4.016,-24.055 h -6.064 v 2.982 h -0.081 c -1.393,-2.326 -3.455,-3.489 -6.186,-3.489 -2.016,0 -3.601,0.572 -4.757,1.714 -1.156,1.143 -1.734,2.667 -1.734,4.574 0,4.029 2.387,6.355 7.16,6.977 l 5.638,0.75 c 0,2.272 -1.23,3.407 -3.691,3.407 -2.475,0 -4.827,-0.736 -7.058,-2.21 v 4.827 c 0.892,0.46 2.112,0.865 3.661,1.217 1.548,0.351 2.957,0.527 4.228,0.527 5.923,0 8.884,-2.954 8.884,-8.863 z" /></g><g
           transform="translate(525.0776,134.0595)"
           id="g90"><path
             id="path92"
             style="fill:#231f20;fill-opacity:1;fill-rule:nonzero;stroke:none"
             d="m 0,0 c -1.514,0 -2.691,-0.521 -3.529,-1.562 -0.839,-1.041 -1.258,-2.515 -1.258,-4.421 0,-3.989 1.609,-5.983 4.828,-5.983 3.069,0 4.604,2.048 4.604,6.145 C 4.645,-1.94 3.096,0 0,0 m -0.162,-16.875 c -3.462,0 -6.183,0.97 -8.164,2.911 -1.981,1.94 -2.971,4.573 -2.971,7.9 0,3.434 1.027,6.121 3.083,8.062 2.055,1.94 4.834,2.91 8.336,2.91 3.448,0 6.152,-0.97 8.113,-2.91 1.96,-1.941 2.941,-4.506 2.941,-7.697 0,-3.448 -1.011,-6.173 -3.032,-8.174 -2.022,-2.002 -4.79,-3.002 -8.306,-3.002" /></g><path
           id="path94"
           style="fill:#231f20;fill-opacity:1;fill-rule:nonzero;stroke:none"
           d="m 546.82,117.692 h -6.409 v 30.748 h 6.409 z" /><g
           transform="translate(562.2749,134.0595)"
           id="g96"><path
             id="path98"
             style="fill:#231f20;fill-opacity:1;fill-rule:nonzero;stroke:none"
             d="m 0,0 c -1.514,0 -2.691,-0.521 -3.529,-1.562 -0.839,-1.041 -1.258,-2.515 -1.258,-4.421 0,-3.989 1.609,-5.983 4.828,-5.983 3.069,0 4.604,2.048 4.604,6.145 C 4.645,-1.94 3.096,0 0,0 m -0.162,-16.875 c -3.462,0 -6.183,0.97 -8.164,2.911 -1.981,1.94 -2.971,4.573 -2.971,7.9 0,3.434 1.027,6.121 3.083,8.062 2.055,1.94 4.834,2.91 8.336,2.91 3.448,0 6.152,-0.97 8.113,-2.91 1.96,-1.941 2.941,-4.506 2.941,-7.697 0,-3.448 -1.011,-6.173 -3.032,-8.174 -2.022,-2.002 -4.79,-3.002 -8.306,-3.002" /></g><g
           transform="translate(591.6436,127.6708)"
           id="g100"><path
             id="path102"
             style="fill:#231f20;fill-opacity:1;fill-rule:nonzero;stroke:none"
             d="M 0,0 V 1.643 C 0,2.954 -0.389,4.073 -1.167,5 -1.944,5.925 -2.955,6.389 -4.199,6.389 -5.618,6.389 -6.734,5.834 -7.545,4.726 -8.356,3.617 -8.762,2.055 -8.762,0.041 c 0,-1.731 0.386,-3.101 1.156,-4.108 0.771,-1.008 1.825,-1.511 3.164,-1.511 1.325,0 2.397,0.51 3.215,1.532 C -0.409,-3.026 0,-1.677 0,0 m 6.328,-7.606 c 0,-3.853 -1.116,-6.838 -3.347,-8.954 -2.231,-2.116 -5.462,-3.175 -9.694,-3.175 -2.8,0 -5.017,0.4 -6.653,1.197 v 5.395 c 2.136,-1.244 4.293,-1.866 6.47,-1.866 2.163,0 3.84,0.571 5.03,1.714 1.19,1.142 1.784,2.694 1.784,4.655 v 1.642 h -0.081 c -1.46,-2.326 -3.617,-3.488 -6.469,-3.488 -2.651,0 -4.753,0.933 -6.308,2.799 -1.555,1.866 -2.332,4.367 -2.332,7.504 0,3.516 0.865,6.308 2.596,8.377 1.73,2.069 4.009,3.103 6.835,3.103 2.528,0 4.421,-0.974 5.678,-2.921 h 0.081 v 2.414 h 6.41 z" /></g><path
           id="path104"
           style="fill:#231f20;fill-opacity:1;fill-rule:nonzero;stroke:none"
           d="m 609.735,117.692 h -6.409 v 20.769 h 6.409 z m -3.164,24.055 c -1.082,0 -1.967,0.32 -2.657,0.963 -0.689,0.642 -1.034,1.43 -1.034,2.363 0,0.96 0.345,1.744 1.034,2.352 0.69,0.609 1.575,0.913 2.657,0.913 1.096,0 1.984,-0.304 2.667,-0.913 0.683,-0.608 1.024,-1.392 1.024,-2.352 0,-0.974 -0.341,-1.772 -1.024,-2.394 -0.683,-0.622 -1.571,-0.932 -2.667,-0.932" /><g
           transform="translate(627.8472,130.1855)"
           id="g106"><path
             id="path108"
             style="fill:#231f20;fill-opacity:1;fill-rule:nonzero;stroke:none"
             d="M 0,0 C 0,2.975 -1.204,4.462 -3.61,4.462 -4.638,4.462 -5.527,4.036 -6.277,3.185 -7.028,2.333 -7.484,1.271 -7.646,0 Z M 5.942,-3.935 H -7.606 c 0.216,-3.015 2.116,-4.523 5.699,-4.523 2.285,0 4.293,0.541 6.024,1.624 v -4.625 C 2.197,-12.487 -0.298,-13 -3.367,-13 c -3.354,0 -5.956,0.929 -7.809,2.788 -1.852,1.859 -2.778,4.452 -2.778,7.778 0,3.448 1,6.179 3.001,8.194 2.001,2.015 4.463,3.022 7.383,3.022 3.029,0 5.371,-0.899 7.028,-2.697 1.656,-1.799 2.484,-4.239 2.484,-7.322 z" /></g><g
           transform="translate(668.7964,117.6918)"
           id="g110"><path
             id="path112"
             style="fill:#231f20;fill-opacity:1;fill-rule:nonzero;stroke:none"
             d="M 0,0 H -6.389 V 3.164 H -6.49 c -1.582,-2.447 -3.698,-3.671 -6.349,-3.671 -4.813,0 -7.22,2.913 -7.22,8.741 v 12.535 h 6.389 V 8.802 c 0,-2.934 1.163,-4.401 3.488,-4.401 1.149,0 2.069,0.403 2.759,1.207 0.689,0.804 1.034,1.896 1.034,3.276 V 20.769 H 0 Z" /></g><g
           transform="translate(694.2505,117.6918)"
           id="g114"><path
             id="path116"
             style="fill:#231f20;fill-opacity:1;fill-rule:nonzero;stroke:none"
             d="m 0,0 h -6.389 v 11.541 c 0,3.217 -1.149,4.827 -3.447,4.827 -1.109,0 -2.022,-0.426 -2.739,-1.278 -0.717,-0.852 -1.075,-1.934 -1.075,-3.245 V 0 h -6.409 v 20.769 h 6.409 v -3.286 h 0.082 c 1.527,2.528 3.752,3.793 6.672,3.793 4.597,0 6.896,-2.853 6.896,-8.559 z" /></g><g
           transform="translate(713.3564,127.7924)"
           id="g118"><path
             id="path120"
             style="fill:#231f20;fill-opacity:1;fill-rule:nonzero;stroke:none"
             d="m 0,0 v 1.562 c 0,1.352 -0.393,2.474 -1.177,3.366 -0.784,0.893 -1.804,1.339 -3.062,1.339 -1.42,0 -2.529,-0.558 -3.326,-1.673 C -8.363,3.479 -8.762,1.947 -8.762,0 c 0,-1.826 0.386,-3.232 1.156,-4.219 0.771,-0.987 1.839,-1.48 3.205,-1.48 1.297,0 2.356,0.52 3.174,1.561 C -0.409,-3.097 0,-1.717 0,0 m 6.287,-10.101 h -6.409 v 2.86 h -0.081 c -1.46,-2.244 -3.604,-3.366 -6.429,-3.366 -2.597,0 -4.685,0.916 -6.267,2.748 -1.582,1.832 -2.373,4.391 -2.373,7.676 0,3.434 0.872,6.186 2.616,8.255 1.744,2.069 4.029,3.103 6.855,3.103 2.677,0 4.543,-0.96 5.598,-2.88 h 0.081 v 12.352 h 6.409 z" /></g><g
           transform="translate(761.3032,117.6918)"
           id="g122"><path
             id="path124"
             style="fill:#231f20;fill-opacity:1;fill-rule:nonzero;stroke:none"
             d="m 0,0 h -8.275 l -8.478,12.636 c -0.162,0.243 -0.419,0.777 -0.77,1.602 h -0.102 V 0 h -6.551 v 29.084 h 6.551 V 15.333 h 0.102 c 0.162,0.378 0.432,0.919 0.811,1.623 l 8.031,12.128 h 7.809 L -11.013,15.211 Z" /></g><g
           transform="translate(783.1865,117.6918)"
           id="g126"><path
             id="path128"
             style="fill:#231f20;fill-opacity:1;fill-rule:nonzero;stroke:none"
             d="M 0,0 H -6.389 V 3.164 H -6.49 c -1.582,-2.447 -3.698,-3.671 -6.348,-3.671 -4.814,0 -7.221,2.913 -7.221,8.741 v 12.535 h 6.389 V 8.802 c 0,-2.934 1.164,-4.401 3.488,-4.401 1.151,0 2.071,0.403 2.76,1.207 0.69,0.804 1.033,1.896 1.033,3.276 V 20.769 H 0 Z" /></g><path
           id="path130"
           style="fill:#231f20;fill-opacity:1;fill-rule:nonzero;stroke:none"
           d="m 794.991,117.692 h -6.409 v 30.748 h 6.409 z" /><g
           transform="translate(812.9414,117.935)"
           id="g132"><path
             id="path134"
             style="fill:#231f20;fill-opacity:1;fill-rule:nonzero;stroke:none"
             d="m 0,0 c -0.946,-0.5 -2.373,-0.75 -4.279,-0.75 -4.517,0 -6.775,2.346 -6.775,7.038 V 15.8 h -3.366 v 4.726 h 3.366 v 4.482 l 6.389,1.825 V 20.526 H 0 V 15.8 H -4.665 V 7.403 c 0,-2.164 0.858,-3.245 2.576,-3.245 0.676,0 1.372,0.196 2.089,0.588 z" /></g><g
           transform="translate(836.2852,117.6918)"
           id="g136"><path
             id="path138"
             style="fill:#231f20;fill-opacity:1;fill-rule:nonzero;stroke:none"
             d="M 0,0 H -6.389 V 3.164 H -6.49 c -1.582,-2.447 -3.698,-3.671 -6.348,-3.671 -4.814,0 -7.221,2.913 -7.221,8.741 v 12.535 h 6.389 V 8.802 c 0,-2.934 1.163,-4.401 3.488,-4.401 1.15,0 2.07,0.403 2.759,1.207 0.69,0.804 1.034,1.896 1.034,3.276 V 20.769 H 0 Z" /></g><g
           transform="translate(855.2295,132.6801)"
           id="g140"><path
             id="path142"
             style="fill:#231f20;fill-opacity:1;fill-rule:nonzero;stroke:none"
             d="m 0,0 c -0.771,0.419 -1.67,0.629 -2.697,0.629 -1.394,0 -2.482,-0.511 -3.266,-1.531 C -6.747,-1.923 -7.14,-3.313 -7.14,-5.07 v -9.918 h -6.409 V 5.781 H -7.14 V 1.927 h 0.081 c 1.015,2.812 2.84,4.219 5.477,4.219 0.676,0 1.203,-0.082 1.582,-0.244 z" /></g><g
           transform="translate(76.5996,53.5004)"
           id="g144"><path
             id="path146"
             style="fill:#090807;fill-opacity:1;fill-rule:nonzero;stroke:none"
             d="m 0,0 h -1.663 l -6.47,21.885 c -0.325,1.122 -0.507,2.034 -0.548,2.737 h -0.081 c -0.04,-0.595 -0.25,-1.494 -0.629,-2.697 L -16.286,0 h -1.664 l -8.64,29.085 h 2.252 L -17.706,5.78 c 0.297,-1.054 0.507,-1.913 0.629,-2.576 h 0.081 c 0.081,0.501 0.317,1.359 0.71,2.576 l 7.18,23.305 h 1.014 L -1.5,5.78 c 0.31,-1.082 0.52,-1.94 0.628,-2.576 h 0.081 c 0.068,0.379 0.176,0.812 0.325,1.299 l 6.815,24.582 h 2.17 z" /></g><g
           transform="translate(103.3521,65.5072)"
           id="g148"><path
             id="path150"
             style="fill:#090807;fill-opacity:1;fill-rule:nonzero;stroke:none"
             d="m 0,0 c -0.081,2.394 -0.656,4.252 -1.724,5.578 -1.068,1.324 -2.542,1.987 -4.422,1.987 -1.947,0 -3.559,-0.652 -4.837,-1.957 C -12.261,4.303 -13.048,2.434 -13.346,0 Z m -13.427,-1.703 c 0,-2.854 0.659,-5.085 1.978,-6.693 1.318,-1.61 3.126,-2.415 5.425,-2.415 2.326,0 4.597,0.859 6.815,2.577 v -1.988 c -2.15,-1.528 -4.55,-2.292 -7.2,-2.292 -2.677,0 -4.841,0.96 -6.49,2.88 -1.65,1.92 -2.475,4.631 -2.475,8.133 0,3.029 0.862,5.581 2.586,7.657 1.724,2.075 3.965,3.114 6.724,3.114 2.582,0 4.563,-0.907 5.942,-2.718 1.379,-1.813 2.069,-4.287 2.069,-7.424 v -0.831 z" /></g><g
           transform="translate(109.376,54.4135)"
           id="g152"><path
             id="path154"
             style="fill:#090807;fill-opacity:1;fill-rule:nonzero;stroke:none"
             d="M 0,0 V 2.251 C 0.703,1.643 1.555,1.162 2.555,0.811 3.556,0.459 4.421,0.283 5.151,0.283 c 3.259,0 4.889,1.332 4.889,3.996 0,0.919 -0.359,1.703 -1.076,2.353 C 8.248,7.281 7.085,7.95 5.476,8.64 3.488,9.505 2.092,10.4 1.288,11.327 c -0.805,0.926 -1.207,2.052 -1.207,3.377 0,1.691 0.646,3.056 1.937,4.097 1.291,1.041 2.883,1.562 4.776,1.562 1.785,0 3.313,-0.365 4.584,-1.095 v -2.11 c -1.542,1.001 -3.137,1.501 -4.787,1.501 -1.365,0 -2.467,-0.355 -3.305,-1.064 -0.839,-0.71 -1.258,-1.633 -1.258,-2.769 0,-0.987 0.264,-1.789 0.791,-2.403 0.527,-0.616 1.69,-1.322 3.489,-2.12 2.163,-0.974 3.65,-1.876 4.462,-2.707 0.811,-0.832 1.216,-1.938 1.216,-3.317 0,-1.65 -0.618,-3.011 -1.855,-4.087 C 8.894,-0.883 7.187,-1.42 5.01,-1.42 3.008,-1.42 1.338,-0.946 0,0" /></g><g
           transform="translate(134.7891,53.7846)"
           id="g156"><path
             id="path158"
             style="fill:#090807;fill-opacity:1;fill-rule:nonzero;stroke:none"
             d="m 0,0 c -0.974,-0.46 -1.886,-0.689 -2.738,-0.689 -3.07,0 -4.604,1.837 -4.604,5.516 v 13.954 h -3.732 v 1.703 h 3.732 v 5.396 c 0.297,0.107 0.608,0.216 0.933,0.324 0.325,0.095 0.635,0.196 0.933,0.305 V 20.484 H 0 V 18.781 H -5.476 V 5.07 c 0,-1.433 0.226,-2.471 0.679,-3.113 0.453,-0.643 1.22,-0.964 2.302,-0.964 0.771,0 1.602,0.25 2.495,0.751 z" /></g><g
           transform="translate(147.9927,82.2807)"
           id="g160"><path
             id="path162"
             style="fill:#090807;fill-opacity:1;fill-rule:nonzero;stroke:none"
             d="m 0,0 c -0.5,0.392 -1.257,0.588 -2.271,0.588 -2.556,0 -3.834,-1.717 -3.834,-5.151 v -3.449 h 5.497 V -9.715 H -6.105 V -28.78 h -1.866 v 19.065 h -3.732 v 1.703 h 3.732 v 3.611 c 0,2.19 0.551,3.853 1.653,4.989 1.102,1.136 2.478,1.704 4.128,1.704 0.878,0 1.608,-0.129 2.19,-0.386 z" /></g><g
           transform="translate(160.5273,77.5951)"
           id="g164"><path
             id="path166"
             style="fill:#090807;fill-opacity:1;fill-rule:nonzero;stroke:none"
             d="m 0,0 c -0.365,0 -0.697,0.132 -0.994,0.396 -0.298,0.263 -0.446,0.619 -0.446,1.065 0,0.419 0.145,0.757 0.436,1.014 0.291,0.256 0.611,0.385 0.963,0.385 0.392,0 0.747,-0.131 1.065,-0.395 C 1.342,2.201 1.5,1.866 1.5,1.461 1.5,1.041 1.355,0.693 1.064,0.416 0.774,0.139 0.419,0 0,0 m -6.754,0 c -0.379,0 -0.717,0.132 -1.014,0.396 -0.298,0.263 -0.446,0.619 -0.446,1.065 0,0.419 0.148,0.757 0.446,1.014 0.297,0.256 0.622,0.385 0.973,0.385 0.392,0 0.744,-0.131 1.055,-0.395 0.311,-0.264 0.467,-0.599 0.467,-1.004 0,-0.42 -0.143,-0.768 -0.427,-1.045 C -5.983,0.139 -6.335,0 -6.754,0 m 3.286,-13.751 c -2.178,-0.312 -3.705,-0.814 -4.584,-1.511 -0.879,-0.696 -1.319,-1.829 -1.319,-3.397 0,-1.231 0.409,-2.244 1.227,-3.042 0.818,-0.798 1.958,-1.197 3.418,-1.197 2.001,0 3.664,0.74 4.99,2.221 1.324,1.481 1.987,3.39 1.987,5.73 v 2.028 z m 5.719,-10.344 v 4.158 H 2.17 c -0.663,-1.419 -1.626,-2.552 -2.89,-3.397 -1.265,-0.845 -2.667,-1.268 -4.209,-1.268 -1.974,0 -3.536,0.554 -4.685,1.664 -1.149,1.108 -1.724,2.507 -1.724,4.198 0,3.623 2.4,5.814 7.2,6.571 l 6.389,0.953 c 0,4.462 -1.677,6.694 -5.03,6.694 -2.285,0 -4.51,-0.92 -6.673,-2.759 v 2.252 c 0.771,0.608 1.816,1.129 3.134,1.561 1.318,0.433 2.559,0.65 3.722,0.65 2.136,0 3.789,-0.663 4.959,-1.989 1.169,-1.325 1.754,-3.252 1.754,-5.78 v -13.508 z" /></g><path
           id="path168"
           style="fill:#090807;fill-opacity:1;fill-rule:nonzero;stroke:none"
           d="m 170.891,84.248 h 1.866 V 53.5 h -1.866 z" /><path
           id="path170"
           style="fill:#090807;fill-opacity:1;fill-rule:nonzero;stroke:none"
           d="m 179.41,74.269 h 1.866 V 53.5 h -1.866 z m 0.912,5.233 c -0.405,0 -0.763,0.149 -1.074,0.447 -0.311,0.297 -0.467,0.675 -0.467,1.135 0,0.447 0.159,0.808 0.477,1.085 0.317,0.277 0.672,0.416 1.064,0.416 0.419,0 0.788,-0.135 1.106,-0.406 0.318,-0.27 0.476,-0.636 0.476,-1.095 0,-0.433 -0.155,-0.804 -0.466,-1.116 -0.311,-0.31 -0.683,-0.466 -1.116,-0.466" /><g
           transform="translate(186.8535,54.4135)"
           id="g172"><path
             id="path174"
             style="fill:#090807;fill-opacity:1;fill-rule:nonzero;stroke:none"
             d="M 0,0 V 2.251 C 0.703,1.643 1.555,1.162 2.555,0.811 3.556,0.459 4.421,0.283 5.151,0.283 c 3.259,0 4.889,1.332 4.889,3.996 0,0.919 -0.359,1.703 -1.076,2.353 C 8.248,7.281 7.085,7.95 5.476,8.64 3.488,9.505 2.092,10.4 1.288,11.327 c -0.805,0.926 -1.207,2.052 -1.207,3.377 0,1.691 0.646,3.056 1.937,4.097 1.291,1.041 2.883,1.562 4.776,1.562 1.785,0 3.313,-0.365 4.584,-1.095 v -2.11 c -1.542,1.001 -3.137,1.501 -4.787,1.501 -1.365,0 -2.467,-0.355 -3.305,-1.064 -0.839,-0.71 -1.258,-1.633 -1.258,-2.769 0,-0.987 0.264,-1.789 0.791,-2.403 0.527,-0.616 1.69,-1.322 3.489,-2.12 2.163,-0.974 3.65,-1.876 4.462,-2.707 0.811,-0.832 1.216,-1.938 1.216,-3.317 0,-1.65 -0.618,-3.011 -1.855,-4.087 C 8.894,-0.883 7.187,-1.42 5.01,-1.42 3.008,-1.42 1.338,-0.946 0,0" /></g><g
           transform="translate(217.4995,54.4135)"
           id="g176"><path
             id="path178"
             style="fill:#090807;fill-opacity:1;fill-rule:nonzero;stroke:none"
             d="m 0,0 c -1.542,-0.946 -3.38,-1.42 -5.517,-1.42 -2.826,0 -5.104,0.97 -6.835,2.91 -1.731,1.941 -2.596,4.479 -2.596,7.616 0,3.299 0.973,6 2.921,8.103 1.946,2.103 4.448,3.154 7.504,3.154 1.582,0 3.116,-0.325 4.604,-0.973 v -2.11 c -1.488,0.919 -3.117,1.379 -4.888,1.379 -2.434,0 -4.408,-0.876 -5.922,-2.627 -1.515,-1.751 -2.272,-4.018 -2.272,-6.804 0,-2.691 0.693,-4.854 2.079,-6.491 1.386,-1.635 3.214,-2.454 5.486,-2.454 2.082,0 3.894,0.555 5.436,1.663 z" /></g><g
           transform="translate(236.605,53.5004)"
           id="g180"><path
             id="path182"
             style="fill:#090807;fill-opacity:1;fill-rule:nonzero;stroke:none"
             d="m 0,0 v 12.453 c 0,2.461 -0.446,4.263 -1.338,5.405 -0.893,1.143 -2.286,1.714 -4.179,1.714 -1.784,0 -3.353,-0.696 -4.705,-2.089 -1.352,-1.392 -2.028,-3.387 -2.028,-5.983 V 0 h -1.866 v 30.748 h 1.866 V 17.037 h 0.081 c 1.636,2.826 4.016,4.239 7.139,4.239 2.244,0 3.955,-0.723 5.132,-2.171 1.176,-1.446 1.764,-3.522 1.764,-6.226 L 1.866,0 Z" /></g><g
           transform="translate(258.5908,65.5072)"
           id="g184"><path
             id="path186"
             style="fill:#090807;fill-opacity:1;fill-rule:nonzero;stroke:none"
             d="m 0,0 c -0.081,2.394 -0.656,4.252 -1.724,5.578 -1.068,1.324 -2.542,1.987 -4.422,1.987 -1.947,0 -3.559,-0.652 -4.837,-1.957 C -12.261,4.303 -13.048,2.434 -13.346,0 Z m -13.427,-1.703 c 0,-2.854 0.659,-5.085 1.978,-6.693 1.318,-1.61 3.126,-2.415 5.425,-2.415 2.326,0 4.597,0.859 6.815,2.577 v -1.988 c -2.15,-1.528 -4.55,-2.292 -7.2,-2.292 -2.677,0 -4.841,0.96 -6.49,2.88 -1.65,1.92 -2.475,4.631 -2.475,8.133 0,3.029 0.862,5.581 2.586,7.657 1.724,2.075 3.965,3.114 6.724,3.114 2.582,0 4.563,-0.907 5.942,-2.718 1.379,-1.813 2.069,-4.287 2.069,-7.424 v -0.831 z" /></g><g
           transform="translate(264.6147,54.4135)"
           id="g188"><path
             id="path190"
             style="fill:#090807;fill-opacity:1;fill-rule:nonzero;stroke:none"
             d="M 0,0 V 2.251 C 0.703,1.643 1.555,1.162 2.555,0.811 3.556,0.459 4.421,0.283 5.151,0.283 c 3.259,0 4.889,1.332 4.889,3.996 0,0.919 -0.359,1.703 -1.076,2.353 C 8.248,7.281 7.085,7.95 5.476,8.64 3.488,9.505 2.092,10.4 1.288,11.327 c -0.805,0.926 -1.207,2.052 -1.207,3.377 0,1.691 0.646,3.056 1.937,4.097 1.291,1.041 2.883,1.562 4.776,1.562 1.785,0 3.313,-0.365 4.584,-1.095 v -2.11 c -1.542,1.001 -3.137,1.501 -4.787,1.501 -1.365,0 -2.467,-0.355 -3.305,-1.064 -0.839,-0.71 -1.258,-1.633 -1.258,-2.769 0,-0.987 0.264,-1.789 0.791,-2.403 0.527,-0.616 1.69,-1.322 3.489,-2.12 2.163,-0.974 3.65,-1.876 4.462,-2.707 0.811,-0.832 1.216,-1.938 1.216,-3.317 0,-1.65 -0.618,-3.011 -1.855,-4.087 C 8.894,-0.883 7.187,-1.42 5.01,-1.42 3.008,-1.42 1.338,-0.946 0,0" /></g><g
           transform="translate(293.5977,53.5004)"
           id="g192"><path
             id="path194"
             style="fill:#090807;fill-opacity:1;fill-rule:nonzero;stroke:none"
             d="M 0,0 V 29.085 H 2.008 V 1.825 H 13.67 L 13.67,0 Z" /></g><g
           transform="translate(318.9102,63.8442)"
           id="g196"><path
             id="path198"
             style="fill:#090807;fill-opacity:1;fill-rule:nonzero;stroke:none"
             d="m 0,0 c -2.177,-0.312 -3.705,-0.814 -4.584,-1.511 -0.879,-0.696 -1.318,-1.829 -1.318,-3.397 0,-1.231 0.408,-2.244 1.227,-3.042 0.818,-0.798 1.957,-1.197 3.417,-1.197 2.001,0 3.664,0.74 4.99,2.221 1.325,1.481 1.987,3.39 1.987,5.73 v 2.028 z m 5.719,-10.344 v 4.158 H 5.638 c -0.662,-1.419 -1.626,-2.552 -2.89,-3.397 -1.265,-0.845 -2.667,-1.268 -4.208,-1.268 -1.975,0 -3.537,0.554 -4.686,1.663 -1.149,1.109 -1.724,2.508 -1.724,4.199 0,3.623 2.4,5.814 7.201,6.571 l 6.388,0.953 c 0,4.462 -1.677,6.694 -5.03,6.694 -2.285,0 -4.509,-0.92 -6.672,-2.759 v 2.252 c 0.77,0.608 1.815,1.129 3.133,1.561 1.319,0.433 2.559,0.65 3.722,0.65 2.136,0 3.789,-0.663 4.959,-1.989 C 7,7.619 7.585,5.692 7.585,3.164 v -13.508 z" /></g><g
           transform="translate(346.8584,53.5004)"
           id="g200"><path
             id="path202"
             style="fill:#090807;fill-opacity:1;fill-rule:nonzero;stroke:none"
             d="m 0,0 v 12.088 c 0,4.989 -1.798,7.484 -5.395,7.484 -2.001,0 -3.644,-0.733 -4.928,-2.2 -1.285,-1.468 -1.927,-3.283 -1.927,-5.446 V 0 h -1.866 v 20.769 h 1.866 v -3.773 h 0.081 c 1.514,2.854 3.88,4.28 7.099,4.28 2.244,0 3.961,-0.748 5.152,-2.241 1.189,-1.495 1.784,-3.628 1.784,-6.399 L 1.866,0 Z" /></g><g
           transform="translate(369.7163,66.1362)"
           id="g204"><path
             id="path206"
             style="fill:#090807;fill-opacity:1;fill-rule:nonzero;stroke:none"
             d="m 0,0 c 0,1.934 -0.612,3.573 -1.835,4.918 -1.225,1.346 -2.871,2.019 -4.939,2.019 -2.177,0 -3.976,-0.835 -5.395,-2.505 -1.42,-1.67 -2.13,-3.965 -2.13,-6.886 0,-2.867 0.639,-5.081 1.917,-6.643 1.278,-1.561 2.924,-2.342 4.939,-2.342 2.365,0 4.198,0.733 5.496,2.201 C -0.649,-7.771 0,-5.983 0,-3.874 Z m 0,-12.636 v 3.773 h -0.081 c -0.676,-1.312 -1.677,-2.353 -3.002,-3.123 -1.325,-0.772 -2.819,-1.157 -4.482,-1.157 -2.556,0 -4.642,0.933 -6.257,2.799 -1.616,1.866 -2.424,4.442 -2.424,7.728 0,3.352 0.882,6.067 2.647,8.143 1.765,2.076 4.053,3.114 6.866,3.114 3.109,0 5.327,-1.279 6.652,-3.834 H 0 v 13.305 h 1.866 v -30.748 z" /></g><g
           transform="translate(392.1079,65.5072)"
           id="g208"><path
             id="path210"
             style="fill:#090807;fill-opacity:1;fill-rule:nonzero;stroke:none"
             d="m 0,0 c -0.081,2.394 -0.656,4.252 -1.724,5.578 -1.068,1.324 -2.542,1.987 -4.422,1.987 -1.947,0 -3.559,-0.652 -4.837,-1.957 C -12.261,4.303 -13.048,2.434 -13.346,0 Z m -13.427,-1.703 c 0,-2.854 0.659,-5.085 1.978,-6.693 1.318,-1.61 3.126,-2.415 5.425,-2.415 2.326,0 4.597,0.859 6.815,2.577 v -1.988 c -2.15,-1.528 -4.55,-2.292 -7.2,-2.292 -2.677,0 -4.841,0.96 -6.49,2.88 -1.65,1.92 -2.475,4.631 -2.475,8.133 0,3.029 0.862,5.581 2.586,7.657 1.724,2.075 3.965,3.114 6.724,3.114 2.582,0 4.563,-0.907 5.942,-2.718 1.379,-1.813 2.069,-4.287 2.069,-7.424 v -0.831 z" /></g><g
           transform="translate(398.1318,54.4135)"
           id="g212"><path
             id="path214"
             style="fill:#090807;fill-opacity:1;fill-rule:nonzero;stroke:none"
             d="M 0,0 V 2.251 C 0.703,1.643 1.555,1.162 2.555,0.811 3.556,0.459 4.421,0.283 5.151,0.283 c 3.259,0 4.889,1.332 4.889,3.996 0,0.919 -0.359,1.703 -1.076,2.353 C 8.248,7.281 7.085,7.95 5.476,8.64 3.488,9.505 2.092,10.4 1.288,11.327 c -0.805,0.926 -1.207,2.052 -1.207,3.377 0,1.691 0.646,3.056 1.937,4.097 1.291,1.041 2.883,1.562 4.776,1.562 1.785,0 3.313,-0.365 4.584,-1.095 v -2.11 c -1.542,1.001 -3.137,1.501 -4.787,1.501 -1.365,0 -2.467,-0.355 -3.305,-1.064 -0.839,-0.71 -1.258,-1.633 -1.258,-2.769 0,-0.987 0.264,-1.789 0.791,-2.403 0.527,-0.616 1.69,-1.322 3.489,-2.12 2.163,-0.974 3.65,-1.876 4.462,-2.707 0.811,-0.832 1.216,-1.938 1.216,-3.317 0,-1.65 -0.618,-3.011 -1.855,-4.087 C 8.894,-0.883 7.187,-1.42 5.01,-1.42 3.008,-1.42 1.338,-0.946 0,0" /></g><g
           transform="translate(441.373,53.5004)"
           id="g216"><path
             id="path218"
             style="fill:#090807;fill-opacity:1;fill-rule:nonzero;stroke:none"
             d="m 0,0 v 12.494 c 0,2.61 -0.409,4.442 -1.227,5.496 -0.818,1.055 -2.113,1.582 -3.884,1.582 -1.637,0 -3.05,-0.703 -4.239,-2.109 -1.19,-1.406 -1.785,-3.171 -1.785,-5.294 V 0 h -1.866 v 12.636 c 0,4.624 -1.758,6.936 -5.273,6.936 -1.691,0 -3.097,-0.707 -4.219,-2.119 -1.123,-1.413 -1.683,-3.242 -1.683,-5.486 V 0 h -1.866 v 20.769 h 1.866 v -3.448 h 0.081 c 1.447,2.637 3.562,3.955 6.348,3.955 1.514,0 2.809,-0.436 3.884,-1.308 1.075,-0.872 1.801,-2.019 2.18,-3.438 0.649,1.501 1.579,2.667 2.789,3.498 1.21,0.832 2.525,1.248 3.945,1.248 4.543,0 6.815,-2.813 6.815,-8.437 L 1.866,0 Z" /></g><g
           transform="translate(463.1763,53.5004)"
           id="g220"><path
             id="path222"
             style="fill:#090807;fill-opacity:1;fill-rule:nonzero;stroke:none"
             d="m 0,0 v 3.772 h -0.081 c -1.447,-2.853 -3.678,-4.279 -6.693,-4.279 -4.909,0 -7.363,3.089 -7.363,9.269 v 12.007 h 1.887 V 9.229 c 0,-2.813 0.462,-4.855 1.389,-6.125 0.926,-1.272 2.383,-1.908 4.371,-1.908 1.933,0 3.498,0.71 4.695,2.13 C -0.599,4.746 0,6.639 0,9.005 V 20.769 H 1.866 V 0 Z" /></g><g
           transform="translate(470.6201,54.4135)"
           id="g224"><path
             id="path226"
             style="fill:#090807;fill-opacity:1;fill-rule:nonzero;stroke:none"
             d="M 0,0 V 2.251 C 0.703,1.643 1.555,1.162 2.555,0.811 3.556,0.459 4.421,0.283 5.151,0.283 c 3.259,0 4.889,1.332 4.889,3.996 0,0.919 -0.359,1.703 -1.076,2.353 C 8.248,7.281 7.085,7.95 5.476,8.64 3.488,9.505 2.092,10.4 1.288,11.327 c -0.805,0.926 -1.207,2.052 -1.207,3.377 0,1.691 0.646,3.056 1.937,4.097 1.291,1.041 2.883,1.562 4.776,1.562 1.785,0 3.313,-0.365 4.584,-1.095 v -2.11 c -1.542,1.001 -3.137,1.501 -4.787,1.501 -1.365,0 -2.467,-0.355 -3.305,-1.064 -0.839,-0.71 -1.258,-1.633 -1.258,-2.769 0,-0.987 0.264,-1.789 0.791,-2.403 0.527,-0.616 1.69,-1.322 3.489,-2.12 2.163,-0.974 3.65,-1.876 4.462,-2.707 0.811,-0.832 1.216,-1.938 1.216,-3.317 0,-1.65 -0.618,-3.011 -1.855,-4.087 C 8.894,-0.883 7.187,-1.42 5.01,-1.42 3.008,-1.42 1.338,-0.946 0,0" /></g><g
           transform="translate(501.6919,65.5072)"
           id="g228"><path
             id="path230"
             style="fill:#090807;fill-opacity:1;fill-rule:nonzero;stroke:none"
             d="m 0,0 c -0.081,2.394 -0.656,4.252 -1.724,5.578 -1.068,1.324 -2.542,1.987 -4.422,1.987 -1.947,0 -3.559,-0.652 -4.837,-1.957 C -12.261,4.303 -13.048,2.434 -13.346,0 Z m -13.427,-1.703 c 0,-2.854 0.659,-5.085 1.978,-6.693 1.318,-1.61 3.126,-2.415 5.425,-2.415 2.326,0 4.597,0.859 6.815,2.577 v -1.988 c -2.15,-1.528 -4.55,-2.292 -7.2,-2.292 -2.677,0 -4.841,0.96 -6.49,2.88 -1.65,1.92 -2.475,4.631 -2.475,8.133 0,3.029 0.862,5.581 2.586,7.657 1.724,2.075 3.965,3.114 6.724,3.114 2.582,0 4.563,-0.907 5.942,-2.718 1.379,-1.813 2.069,-4.287 2.069,-7.424 v -0.831 z" /></g><g
           transform="translate(522.5015,53.5004)"
           id="g232"><path
             id="path234"
             style="fill:#090807;fill-opacity:1;fill-rule:nonzero;stroke:none"
             d="m 0,0 v 3.772 h -0.081 c -1.447,-2.853 -3.678,-4.279 -6.693,-4.279 -4.909,0 -7.363,3.089 -7.363,9.269 v 12.007 h 1.887 V 9.229 c 0,-2.813 0.462,-4.855 1.389,-6.125 0.926,-1.272 2.383,-1.908 4.371,-1.908 1.933,0 3.498,0.71 4.695,2.13 C -0.599,4.746 0,6.639 0,9.005 V 20.769 H 1.866 V 0 Z" /></g><g
           transform="translate(557.062,53.5004)"
           id="g236"><path
             id="path238"
             style="fill:#090807;fill-opacity:1;fill-rule:nonzero;stroke:none"
             d="m 0,0 v 12.494 c 0,2.61 -0.409,4.442 -1.227,5.496 -0.818,1.055 -2.113,1.582 -3.884,1.582 -1.637,0 -3.05,-0.703 -4.239,-2.109 -1.19,-1.406 -1.785,-3.171 -1.785,-5.294 V 0 h -1.866 v 12.636 c 0,4.624 -1.758,6.936 -5.273,6.936 -1.691,0 -3.097,-0.707 -4.219,-2.119 -1.123,-1.413 -1.683,-3.242 -1.683,-5.486 V 0 h -1.866 v 20.769 h 1.866 v -3.448 h 0.081 c 1.447,2.637 3.562,3.955 6.348,3.955 1.514,0 2.809,-0.436 3.884,-1.308 1.075,-0.872 1.801,-2.019 2.18,-3.438 0.649,1.501 1.579,2.667 2.789,3.498 1.21,0.832 2.525,1.248 3.945,1.248 4.543,0 6.815,-2.813 6.815,-8.437 L 1.866,0 Z" /></g><path
           id="path240"
           style="fill:#090807;fill-opacity:1;fill-rule:nonzero;stroke:none"
           d="m 576.938,85.283 h 1.927 V 43.745 h -1.927 z" /><g
           transform="translate(597.707,53.5004)"
           id="g242"><path
             id="path244"
             style="fill:#090807;fill-opacity:1;fill-rule:nonzero;stroke:none"
             d="M 0,0 V 29.085 H 2.008 V 1.825 H 13.67 L 13.67,0 Z" /></g><g
           transform="translate(640.624,53.5004)"
           id="g246"><path
             id="path248"
             style="fill:#090807;fill-opacity:1;fill-rule:nonzero;stroke:none"
             d="m 0,0 h -1.663 l -6.47,21.885 c -0.325,1.122 -0.507,2.034 -0.548,2.737 h -0.081 c -0.04,-0.595 -0.25,-1.494 -0.629,-2.697 L -16.286,0 h -1.664 l -8.64,29.085 h 2.252 L -17.706,5.78 c 0.297,-1.054 0.507,-1.913 0.629,-2.576 h 0.081 c 0.081,0.501 0.317,1.359 0.71,2.576 l 7.18,23.305 h 1.014 L -1.5,5.78 c 0.31,-1.082 0.52,-1.94 0.628,-2.576 h 0.081 c 0.068,0.379 0.176,0.812 0.325,1.299 l 6.815,24.582 h 2.17 z" /></g><g
           transform="translate(653.9087,53.5004)"
           id="g250"><path
             id="path252"
             style="fill:#090807;fill-opacity:1;fill-rule:nonzero;stroke:none"
             d="M 0,0 V 29.085 H 2.008 V 1.825 H 13.67 L 13.67,0 Z" /></g><path
           id="path254"
           style="fill:#090807;fill-opacity:1;fill-rule:nonzero;stroke:none"
           d="m 672.143,66.582 h 11.094 v -1.825 h -11.094 z" /><g
           transform="translate(714.6738,53.5004)"
           id="g256"><path
             id="path258"
             style="fill:#090807;fill-opacity:1;fill-rule:nonzero;stroke:none"
             d="m 0,0 v 20.647 c 0,0.5 0.074,1.927 0.223,4.28 H 0.142 c -0.419,-1.096 -0.77,-1.941 -1.055,-2.535 L -11.256,0 h -0.649 L -22.29,22.27 c -0.338,0.716 -0.656,1.629 -0.953,2.738 h -0.102 c 0.095,-1.298 0.142,-2.59 0.142,-3.874 V 0 h -2.007 v 29.085 h 1.865 L -12.494,5.659 c 0.068,-0.136 0.142,-0.318 0.223,-0.548 0.082,-0.23 0.169,-0.46 0.264,-0.689 0.135,-0.353 0.277,-0.744 0.426,-1.177 h 0.122 l 0.223,0.65 c 0.013,0.053 0.243,0.696 0.69,1.926 L 0.142,29.085 H 1.927 L 1.927,0 Z" /></g><g
           transform="translate(734.084,77.8393)"
           id="g260"><path
             id="path262"
             style="fill:#090807;fill-opacity:1;fill-rule:nonzero;stroke:none"
             d="M 0,0 C -0.149,0.405 -0.271,0.804 -0.365,1.196 -0.46,1.534 -0.562,1.872 -0.669,2.21 H -0.75 C -0.981,1.318 -1.204,0.595 -1.42,0.04 L -6.308,-13.447 H 4.908 Z m 8.924,-24.339 -3.326,9.046 H -7.018 l -3.326,-9.046 h -2.211 L -1.582,4.746 h 1.906 l 10.851,-29.085 z" /></g><g
           transform="translate(765.1562,53.5004)"
           id="g264"><path
             id="path266"
             style="fill:#090807;fill-opacity:1;fill-rule:nonzero;stroke:none"
             d="m 0,0 -12.393,13.913 c -0.23,0.257 -0.392,0.481 -0.486,0.67 H -12.96 V 0 h -2.008 v 29.085 h 2.008 V 15.374 h 0.081 c 0.162,0.284 0.337,0.521 0.527,0.71 L -0.588,29.085 H 2.028 L -10.729,14.988 2.819,0 Z" /></g></g></g></g></svg>